# xmcd
#
# Track frame offsets:
# 183
# 18755
# 40643
# 57903
# 78475
# 94523
# 116165
# 137730
# 154963
# 173880
# 189540
# 207060
# 223668
# 240895
# 253308
# 270323
# 286653
# 303555
#
# Disc length: 4297 seconds
#
# Revision: 0
# Processed by: cddbd v1.4PL0 Copyright (c) Steve Scherf et al.
# Submitted via: MacMP3 Pro 5.0 (http://mp3.act2.co.jp/)
#
DISCID=f110c712
DTITLE=yosio kimura - enka 2
DYEAR=1900
DGENRE=
TTITLE0=21
TTITLE1=22
TTITLE2=23
TTITLE3=24
TTITLE4=25
TTITLE5=26
TTITLE6=27
TTITLE7=28
TTITLE8=29
TTITLE9=30
TTITLE10=31
TTITLE11=32
TTITLE12=33
TTITLE13=34
TTITLE14=35
TTITLE15=36
TTITLE16=37
TTITLE17=38
EXTD=
EXTT0=
EXTT1=
EXTT2=
EXTT3=
EXTT4=
EXTT5=
EXTT6=
EXTT7=
EXTT8=
EXTT9=
EXTT10=
EXTT11=
EXTT12=
EXTT13=
EXTT14=
EXTT15=
EXTT16=
EXTT17=
PLAYORDER=
